<svg height="512" viewBox="0 0 64 64" width="512" xmlns="http://www.w3.org/2000/svg"><g id="Filled_outline" data-name="Filled outline"><path d="m5 4h54a2 2 0 0 1 2 2v43a3 3 0 0 1 -3 3h-52a3 3 0 0 1 -3-3v-43a2 2 0 0 1 2-2z" fill="#394d5c"/><path d="m7 8h50v40h-50z" fill="#f4f4e6"/><rect fill="#394d5c" height="4" rx="2" width="18" x="23" y="56"/><path d="m30 52h4v4h-4z" fill="#143441"/><path d="m13 32h2a0 0 0 0 1 0 0v16a0 0 0 0 1 0 0h-4a0 0 0 0 1 0 0v-14a2 2 0 0 1 2-2z" fill="#ffd782"/><path d="m13 32h2a0 0 0 0 1 0 0v6a0 0 0 0 1 0 0h-4a0 0 0 0 1 0 0v-4a2 2 0 0 1 2-2z" fill="#195c85"/><path d="m15 14h14v18h-14z" fill="#ffd782" transform="matrix(-1 0 0 -1 44 46)"/><path d="m15 32h14v16h-14z" fill="#5f79ba" transform="matrix(-1 0 0 -1 44 80)"/><path d="m29 32h4a0 0 0 0 1 0 0v6a0 0 0 0 1 0 0h-2a2 2 0 0 1 -2-2v-4a0 0 0 0 1 0 0z" fill="#195c85" transform="matrix(-1 0 0 -1 62 70)"/><path d="m22 32a2 2 0 0 1 2 2v2a0 0 0 0 1 0 0h-4a0 0 0 0 1 0 0v-2a2 2 0 0 1 2-2z" fill="#f9bb4b" transform="matrix(-1 0 0 -1 44 68)"/><path d="m29 38h10v4h-10z" fill="#ffd782"/><path d="m25 22h4v4h-4z" fill="#96c3f0"/><path d="m15 44h14v4h-14z" fill="#195c85"/><path d="m43 40h14v8h-14z" fill="#ffd782"/><path d="m15 14v4 10h4v-10h10v-4z" fill="#394d5c"/><path d="m59 3h-54a3 3 0 0 0 -3 3v43a4.054 4.054 0 0 0 4 4h23v2h-4a3 3 0 0 0 0 6h14a3 3 0 0 0 0-6h-4v-2h23a4.054 4.054 0 0 0 4-4v-43a3 3 0 0 0 -3-3zm-20 54a1 1 0 0 1 0 2h-14a1 1 0 0 1 0-2zm-8-2v-2h2v2zm29-6a2.053 2.053 0 0 1 -2 2h-52a2.053 2.053 0 0 1 -2-2v-43a1 1 0 0 1 1-1h54a1 1 0 0 1 1 1z"/><path d="m57 7h-50a1 1 0 0 0 -1 1v40a1 1 0 0 0 1 1h50a1 1 0 0 0 1-1v-40a1 1 0 0 0 -1-1zm-43 40h-2v-8h2zm0-10h-2v-3a1 1 0 0 1 1-1h1zm14 10h-12v-2h12zm0-4h-12v-10h3v1a3 3 0 0 0 2 2.816v4.184h2v-4.184a3 3 0 0 0 2-2.816v-1h3zm-7-9v-1h2v1a1 1 0 0 1 -2 0zm7-3h-12v-2h3a1 1 0 0 0 1-1v-3h4v1a1 1 0 0 0 1 1h3zm0-6h-2v-2h2zm0-4h-3a1 1 0 0 0 -1 1v1h-4v-4h8zm0-4h-9a1 1 0 0 0 -1 1v9h-2v-12h12zm28 30h-12v-6h12zm0-8h-13a1 1 0 0 0 -1 1v7h-12v-4h9a1 1 0 0 0 1-1v-4a1 1 0 0 0 -1-1h-.613l3.561-10.684-1.9-.632-3.768 11.316h-2.28v-3a3 3 0 0 0 -3-3h-1v-17a1 1 0 0 0 -1-1h-14a1 1 0 0 0 -1 1v17h-1a3 3 0 0 0 -3 3v13h-2v-38h48zm-18 0v2h-8v-2zm-8-2v-4h1a1 1 0 0 1 1 1v3z"/><path d="m36 13h16v2h-16z"/><path d="m36 17h6v2h-6z"/><path d="m36 21h6v2h-6z"/><path d="m44 22a5 5 0 1 0 5-5 5.006 5.006 0 0 0 -5 5zm8 0a3 3 0 1 1 -3-3 3 3 0 0 1 3 3z"/><path d="m46 43h8v2h-8z"/></g></svg>